<?xml version="1.0" encoding="utf-8"?>
<!-- Generator: Adobe Illustrator 16.0.0, SVG Export Plug-In . SVG Version: 6.00 Build 0)  -->
<!DOCTYPE svg PUBLIC "-//W3C//DTD SVG 1.1//EN" "http://www.w3.org/Graphics/SVG/1.1/DTD/svg11.dtd">
<svg version="1.1" xmlns="http://www.w3.org/2000/svg" xmlns:xlink="http://www.w3.org/1999/xlink" x="0px" y="0px"
	 width="500.263px" height="500.263px" viewBox="0 0 500.263 500.263" enable-background="new 0 0 500.263 500.263"
	 xml:space="preserve">
<g id="Layer_2">
	<linearGradient id="SVGID_1_" gradientUnits="userSpaceOnUse" x1="8.5991" y1="247.333" x2="494.3677" y2="247.333">
		<stop  offset="0" style="stop-color:#D6E038"/>
		<stop  offset="0.049" style="stop-color:#CADB39"/>
		<stop  offset="0.1658" style="stop-color:#B1D23B"/>
		<stop  offset="0.2852" style="stop-color:#9ECC3D"/>
		<stop  offset="0.4079" style="stop-color:#93C83E"/>
		<stop  offset="0.5385" style="stop-color:#8FC73E"/>
		<stop  offset="0.9994" style="stop-color:#3CB54A"/>
	</linearGradient>
	<path fill="url(#SVGID_1_)" d="M470.047,4.449H32.919c-13.432,0-24.32,10.888-24.32,24.32v437.127
		c0,13.432,10.888,24.32,24.32,24.32h437.128c13.431,0,24.32-10.888,24.32-24.32V28.769C494.368,15.337,483.479,4.449,470.047,4.449
		z M483.488,456.105c0,12.83-10.402,23.231-23.23,23.231H42.71c-12.83,0-23.231-10.402-23.231-23.231V38.56
		c0-12.831,10.401-23.231,23.231-23.231h417.547c12.829,0,23.23,10.401,23.23,23.231V456.105z"/>
	<g>
		<path fill="#75B043" d="M95.727,326.832c0.651,1.254,1.517,2.271,2.596,3.048c1.078,0.778,2.344,1.354,3.8,1.731
			c1.455,0.376,2.959,0.564,4.515,0.564c1.054,0,2.182-0.087,3.386-0.263c1.204-0.175,2.333-0.514,3.387-1.016
			c1.053-0.5,1.931-1.191,2.634-2.069c0.702-0.877,1.053-1.994,1.053-3.349c0-1.455-0.464-2.634-1.392-3.537
			c-0.929-0.903-2.145-1.655-3.65-2.257c-1.505-0.602-3.211-1.129-5.117-1.581c-1.907-0.452-3.838-0.952-5.794-1.505
			c-2.007-0.501-3.964-1.116-5.87-1.844c-1.907-0.727-3.612-1.667-5.117-2.822c-1.505-1.153-2.722-2.596-3.65-4.327
			c-0.929-1.731-1.392-3.825-1.392-6.284c0-2.759,0.589-5.155,1.769-7.187c1.178-2.032,2.721-3.725,4.628-5.08
			c1.906-1.354,4.063-2.357,6.472-3.01c2.408-0.651,4.816-0.978,7.225-0.978c2.809,0,5.505,0.314,8.089,0.94
			c2.583,0.628,4.879,1.644,6.886,3.048c2.006,1.405,3.6,3.198,4.779,5.381c1.178,2.182,1.769,4.829,1.769,7.939h-11.438
			c-0.102-1.605-0.44-2.935-1.016-3.988c-0.577-1.054-1.343-1.881-2.295-2.483c-0.954-0.602-2.044-1.028-3.273-1.279
			c-1.23-0.25-2.571-0.376-4.026-0.376c-0.954,0-1.907,0.101-2.86,0.301c-0.954,0.201-1.819,0.553-2.596,1.054
			c-0.778,0.502-1.418,1.128-1.919,1.881c-0.502,0.753-0.752,1.707-0.752,2.86c0,1.054,0.2,1.907,0.602,2.559
			c0.401,0.653,1.191,1.255,2.371,1.806c1.178,0.553,2.809,1.104,4.891,1.656c2.082,0.552,4.803,1.254,8.165,2.107
			c1.003,0.201,2.396,0.564,4.177,1.091c1.78,0.526,3.549,1.367,5.305,2.521c1.756,1.154,3.273,2.697,4.553,4.628
			c1.279,1.932,1.919,4.402,1.919,7.413c0,2.458-0.478,4.741-1.43,6.848c-0.954,2.107-2.37,3.926-4.251,5.456
			c-1.881,1.531-4.214,2.722-6.999,3.575c-2.784,0.853-6.008,1.279-9.67,1.279c-2.961,0-5.832-0.365-8.617-1.091
			c-2.784-0.727-5.243-1.868-7.375-3.424c-2.133-1.555-3.826-3.537-5.08-5.945c-1.255-2.408-1.857-5.268-1.806-8.579h11.438
			C94.748,324.048,95.074,325.579,95.727,326.832z"/>
		<path fill="#75B043" d="M131.32,296.279v-9.934h44.023v9.934h-16.104v43.797h-11.815v-43.797H131.32z"/>
		<path fill="#75B043" d="M201.381,286.346l20.093,53.731h-12.267l-4.063-11.965h-20.093l-4.214,11.965h-11.89l20.318-53.731
			H201.381z M202.059,319.307l-6.773-19.716h-0.15l-6.999,19.716H202.059z"/>
		<path fill="#75B043" d="M255.112,286.346c2.408,0,4.578,0.389,6.509,1.167c1.931,0.778,3.586,1.844,4.967,3.198
			c1.379,1.354,2.433,2.923,3.161,4.703c0.727,1.781,1.091,3.701,1.091,5.757c0,3.161-0.666,5.896-1.994,8.203
			c-1.33,2.308-3.5,4.064-6.509,5.268v0.15c1.454,0.402,2.658,1.016,3.612,1.844c0.953,0.828,1.731,1.806,2.333,2.935
			c0.602,1.129,1.041,2.371,1.317,3.725c0.275,1.355,0.463,2.709,0.564,4.064c0.049,0.854,0.1,1.856,0.15,3.01
			c0.049,1.154,0.138,2.333,0.264,3.537c0.125,1.204,0.326,2.346,0.602,3.424c0.275,1.079,0.689,1.994,1.242,2.747h-11.815
			c-0.653-1.705-1.054-3.737-1.204-6.096c-0.15-2.357-0.376-4.615-0.677-6.772c-0.402-2.809-1.255-4.866-2.559-6.171
			c-1.305-1.304-3.437-1.957-6.396-1.957h-11.815v20.996h-11.815v-53.731H255.112z M250.897,310.652
			c2.709,0,4.741-0.602,6.096-1.806c1.354-1.204,2.032-3.161,2.032-5.87c0-2.608-0.677-4.502-2.032-5.682
			c-1.354-1.178-3.386-1.769-6.096-1.769h-12.943v15.126H250.897z"/>
		<path fill="#75B043" d="M274.903,296.279v-9.934h44.023v9.934h-16.104v43.797h-11.815v-43.797H274.903z"/>
		<path fill="#75B043" d="M365.282,286.346v9.934h-28.371v11.514h26.038v9.181h-26.038v13.169h28.973v9.934h-40.788v-53.731H365.282
			z"/>
		<path fill="#75B043" d="M402.833,286.346c2.408,0,4.578,0.389,6.509,1.167c1.931,0.778,3.586,1.844,4.967,3.198
			c1.379,1.354,2.433,2.923,3.161,4.703c0.727,1.781,1.091,3.701,1.091,5.757c0,3.161-0.666,5.896-1.994,8.203
			c-1.33,2.308-3.5,4.064-6.509,5.268v0.15c1.454,0.402,2.658,1.016,3.612,1.844c0.953,0.828,1.731,1.806,2.333,2.935
			c0.602,1.129,1.041,2.371,1.317,3.725c0.275,1.355,0.463,2.709,0.564,4.064c0.049,0.854,0.1,1.856,0.15,3.01
			c0.049,1.154,0.138,2.333,0.264,3.537c0.125,1.204,0.326,2.346,0.602,3.424c0.275,1.079,0.689,1.994,1.242,2.747h-11.815
			c-0.653-1.705-1.054-3.737-1.204-6.096c-0.15-2.357-0.376-4.615-0.677-6.772c-0.402-2.809-1.255-4.866-2.559-6.171
			c-1.305-1.304-3.437-1.957-6.396-1.957h-11.815v20.996h-11.815v-53.731H402.833z M398.619,310.652
			c2.709,0,4.741-0.602,6.096-1.806c1.354-1.204,2.032-3.161,2.032-5.87c0-2.608-0.677-4.502-2.032-5.682
			c-1.354-1.178-3.386-1.769-6.096-1.769h-12.943v15.126H398.619z"/>
	</g>
</g>
<g id="Layer_1">
	<g id="layer1_1_" transform="translate(0,-850.3622)">
		<g id="g5991_1_" transform="translate(609.88006,-675.5293)">
			<g id="g4224_1_" transform="translate(-10.101525,233.99825)">

					<path id="path4228_1_" fill="#75B043" d="
					M-509.541,1513.61c-8.833-1.158-18.967-7.225-24.666-14.767c-5.445-7.208-7.961-14.275-7.976-22.406
					c-0.014-7.22,2.105-12.574,7.477-18.895l1.423-1.674l-1.188,3.349c-0.905,2.554-1.189,4.673-1.194,8.93
					c-0.01,7.122,1.755,12.891,5.79,18.923c7.246,10.833,18.654,17.421,31.217,18.026c9.61,0.462,16.706-1.809,22.708-7.271
					l3.177-2.89l-1.305,2.337C-481.048,1509.752-493.878,1515.664-509.541,1513.61L-509.541,1513.61z M-500.343,1491.322
					c-3.454-0.88-6.873-2.595-10.445-5.238c-3.979-2.943-6.245-5.789-8.73-10.961c-1.627-3.386-1.744-4.038-1.744-9.767
					c0-5.895,0.074-6.273,1.839-9.488c1.011-1.842,2.454-4.102,3.206-5.022l1.366-1.675l-1.169,3.07
					c-0.953,2.5-1.127,3.965-0.943,7.902c0.198,4.228,0.494,5.375,2.359,9.151c6.626,13.407,22.917,20.03,35.169,14.297
					c1.952-0.914,4.565-2.677,5.808-3.919c2.564-2.564,2.452-1.702-0.331,2.552c-2.205,3.371-6.182,6.486-10.347,8.104
					C-487.576,1491.6-496.97,1492.182-500.343,1491.322L-500.343,1491.322z M-493.635,1470.899
					c-3.807-1.764-6.903-4.688-8.821-8.333c-1.968-3.739-2.074-9.46-0.24-12.938c1.585-3.004,2.462-3.583,1.77-1.169
					c-1.34,4.676,0.475,9.927,4.996,14.448c3.748,3.748,7.883,5.519,12.884,5.519c3.897,0,5.856-0.654,8.054-2.688
					c1.757-1.625,1.525-0.904-0.661,2.049C-478.973,1472.272-487.493,1473.747-493.635,1470.899L-493.635,1470.899z"/>
			</g>
			<path id="path4183_1_" fill="#75B043" d="M-307.47,1772.049
				c0.007-0.384,0.509-2.946,1.116-5.693c0.607-2.748,1.104-5.322,1.104-5.721v-0.726h-0.785h-0.785l0.291-1.116l0.292-1.116h0.766
				h0.764l0.797-1.909l0.797-1.907l1.196-0.641l1.196-0.64l1.642,0.36l1.642,0.36l-0.009,0.654
				c-0.004,0.359-0.192,0.941-0.418,1.294l-0.41,0.642l-1.352,0.195l-1.352,0.195l-0.23,0.698l-0.23,0.698h1.502h1.501l-0.338,0.884
				c-0.186,0.485-0.339,0.987-0.339,1.116s-0.612,0.233-1.359,0.233h-1.357l-0.303,0.977c-0.166,0.538-0.669,2.741-1.119,4.896
				c-0.45,2.157-1.077,4.605-1.396,5.442l-0.579,1.521h-1.13h-1.13L-307.47,1772.049L-307.47,1772.049z"/>
			<path id="path4181_1_" fill="#75B043" d="M-376.633,1763.426
				c0.584-2.67,1.062-5.021,1.062-5.224v-0.369l3.187-0.329l3.186-0.329l0.581,0.461l0.581,0.46l1.116-0.45
				c0.613-0.248,1.676-0.467,2.358-0.489l1.243-0.04l0.896,1.367l0.896,1.367l-0.643,3.238c-0.353,1.781-0.767,3.677-0.919,4.214
				l-0.278,0.977h-1.262h-1.263l0.498-3.713l0.497-3.713l-0.732-0.464c-0.403-0.255-0.984-0.384-1.291-0.287l-0.558,0.177
				l-0.168,1.071c-0.092,0.588-0.424,2.388-0.736,4l-0.57,2.93h-1.366h-1.367l0.259-1.256c0.142-0.69,0.41-2.417,0.593-3.838
				l0.333-2.582l-0.956-0.368l-0.956-0.365l-0.419,0.678c-0.23,0.373-0.718,2.264-1.084,4.204l-0.666,3.527h-1.556h-1.555
				L-376.633,1763.426L-376.633,1763.426z"/>
			<path id="path4179_1_" fill="#75B043" d="M-359.833,1767.612l-0.669-0.67l0.002-2.539
				l0.002-2.54l1.088-1.784l1.087-1.782l2.208-0.662l2.208-0.663l1.407,0.354c0.774,0.194,1.801,0.747,2.283,1.229l0.875,0.876
				v1.652v1.652l-0.778,1.863l-0.778,1.862l-1.3,0.91l-1.299,0.91h-2.833h-2.835L-359.833,1767.612L-359.833,1767.612z"/>
			<path id="path4177_1_" fill="#FFFFFF" d="M-353.901,1765.072l1.144-0.977l0.099-1.117
				c0.053-0.613,0.068-1.413,0.034-1.775l-0.065-0.661l-1.095-0.348l-1.094-0.347l-1.093,0.585l-1.092,0.584l-0.391,1.778
				l-0.39,1.777l1.01,0.738C-355.529,1766.265-355.274,1766.244-353.901,1765.072L-353.901,1765.072z"/>
			<path id="path4175_1_" fill="#75B043" d="M-348.205,1766.771
				c0.011-0.858,0.576-4.197,1.256-7.419l1.236-5.861l1.335-0.188l1.336-0.188l-0.304,2.263l-0.303,2.263l2.398-0.328l2.398-0.329
				l0.914,1.393l0.912,1.392l-0.374,2.334l-0.373,2.333l-1.199,1.783l-1.2,1.784l-4.027,0.164l-4.026,0.164L-348.205,1766.771
				L-348.205,1766.771z"/>
			<path id="path4173_1_" fill="#FFFFFF" d="M-340.955,1764.059
				c0.299-0.788,0.545-1.913,0.545-2.5v-1.069l-1.437-0.36l-1.436-0.361l-0.489,0.489c-0.269,0.27-0.659,1.558-0.867,2.862
				l-0.379,2.372h1.759h1.759L-340.955,1764.059z"/>
			<path id="path4171_1_" fill="#75B043" d="M-335.224,1764.256l0.519-4.025l-0.62-0.208
				l-0.621-0.207v-1.069v-1.07h2.548h2.55l-0.278,0.977c-0.154,0.537-0.564,2.483-0.913,4.325c-0.351,1.842-0.761,3.789-0.914,4.326
				l-0.277,0.977h-1.257h-1.257L-335.224,1764.256z"/>
			<path id="path4196_1_" fill="#75B043" d="
				M-329.341,1755.604l0.593,0.366l0.663,0.419l-0.819,3.854c-0.454,2.122-0.941,4.797-1.099,5.948l-0.297,2.093h1.309h1.309
				l0.941-4.326c0.516-2.379,1.262-5.769,1.657-7.534l0.715-3.209h-2.442h-2.442l-0.018,0.698
				C-329.29,1754.52-329.379,1754.981-329.341,1755.604L-329.341,1755.604z"/>
			<path id="path4194_1_" fill="#75B043" d="
				M-329.867,1754.819l0.02-1.186l-0.576-0.977h-1.012h-1.028l-0.681,0.819l-0.698,0.837l0.349,0.924l0.349,0.907l1.866-0.296
				l1.013-0.179L-329.867,1754.819z"/>
			<path id="path4167_1_" fill="#75B043" d="M-323.807,1767.678l-0.978-0.569v-2.223v-2.223
				l0.793-1.897l0.793-1.899l1.691-0.874l1.69-0.875h1.578h1.578l1.241,0.87l1.241,0.868v2.479v2.48h-3.628h-3.628v0.837v0.837h3.07
				h3.069v0.726c0,0.398-0.302,1.027-0.67,1.395l-0.669,0.669l-3.098-0.016l-3.097-0.018L-323.807,1767.678L-323.807,1767.678z"/>
			<path id="path4165_1_" fill="#FFFFFF" d="M-317.348,1760.69l-0.3-0.781h-0.731
				c-0.402,0-1.129,0.152-1.615,0.339l-0.882,0.339v0.665v0.666l1.914-0.224l1.914-0.223L-317.348,1760.69z"/>
			<path id="path4163_1_" fill="#75B043" d="M-298.376,1763.077l1.098-5.26l3.106-0.321
				l3.107-0.32l0.721,0.599l0.72,0.597v1.885v1.885h-1.656h-1.657l0.292-0.765l0.294-0.765l-0.949-0.364
				c-1.256-0.481-1.235-0.515-2.341,3.911l-0.959,3.844l-1.438,0.167l-1.438,0.167L-298.376,1763.077z"/>
			<path id="path4161_1_" fill="#75B043" d="M-288.393,1767.614l-0.671-0.672v-2.139v-2.139
				l0.791-1.892l0.79-1.892l1.458-0.956l1.459-0.956l3.165,0.372c1.74,0.204,3.265,0.472,3.386,0.595
				c0.124,0.123-0.254,2.438-0.839,5.144l-1.062,4.922l-3.901,0.142l-3.901,0.142L-288.393,1767.614z"/>
			<path id="path4159_1_" fill="#FFFFFF" d="M-281.902,1763.122l0.6-2.369l-0.492-0.492
				l-0.493-0.493l-1.393,0.35l-1.394,0.35l-0.641,1.942l-0.641,1.942l0.353,0.569l0.351,0.569h1.574h1.573L-281.902,1763.122z"/>
			<path id="path4157_1_" fill="#75B043" d="M-276.605,1763.049l1.092-5.232l3.129-0.322
				l3.128-0.323l0.447,0.447l0.446,0.448l2.182-0.582l2.181-0.583l1.198,1.084l1.197,1.083l-0.335,2.456
				c-0.186,1.351-0.598,3.423-0.916,4.606l-0.581,2.15h-1.166h-1.167l0.378-3.836l0.378-3.836l-0.959-0.369l-0.958-0.368l-0.4,0.649
				c-0.22,0.356-0.563,1.874-0.762,3.374c-0.2,1.499-0.506,3.1-0.68,3.556l-0.321,0.831h-1.234h-1.237l0.418-2.93
				c0.23-1.611,0.436-3.342,0.458-3.847l0.041-0.917l-0.932-0.357l-0.932-0.358l-0.363,0.587c-0.2,0.322-0.687,2.215-1.083,4.205
				l-0.718,3.618h-1.511h-1.51L-276.605,1763.049z"/>
			<path id="path4155_1_" fill="#75B043" d="M-259.932,1767.612l-0.669-0.67l0.001-2.26l0-2.261
				l0.977-1.946l0.976-1.945l1.395-0.698l1.395-0.697l1.69-0.008l1.689-0.008l1.271,0.89l1.269,0.89l-0.168,2.319l-0.169,2.32
				l-3.499,0.279l-3.498,0.279l0.003,0.558l0.003,0.559l3.075,0.167c3.321,0.181,3.362,0.21,2.499,1.822l-0.577,1.08h-3.498h-3.495
				L-259.932,1767.612L-259.932,1767.612z"/>
			<path id="path4153_1_" fill="#FFFFFF" d="M-253.346,1760.646v-0.811l-1.531,0.177l-1.529,0.176
				l-0.167,0.883l-0.167,0.884l1.696-0.249l1.698-0.249V1760.646z"/>
			<path id="path4151_1_" fill="#75B043" d="M-248.205,1763.152l0.161-5.196l1.586-0.181
				l1.587-0.182l-0.192,3.339l-0.191,3.339l0.318-0.198c0.174-0.109,0.791-1.592,1.372-3.296l1.053-3.1h2.117h2.117l0.031,3.768
				l0.031,3.768l1.428-3.768l1.428-3.768h1.332h1.333v0.589c0,0.324-0.922,2.71-2.048,5.302l-2.047,4.713h-2.138h-2.139l-0.04-3.488
				l-0.039-3.488l-1.292,3.348l-1.291,3.349l-2.319,0.173l-2.318,0.172L-248.205,1763.152L-248.205,1763.152z"/>
			<path id="path4149_1_" fill="#75B043" d="M-231.82,1767.404l-0.876-0.877v-1.895v-1.895
				l0.93-1.953l0.932-1.954l1.933-0.918l1.933-0.917l2.018,0.329l2.016,0.328l0.7,0.955l0.699,0.958v1.882v1.884l-0.627,1.22
				c-0.346,0.67-1.143,1.784-1.772,2.474l-1.145,1.256h-2.932h-2.933L-231.82,1767.404z"/>
			<path id="path4147_1_" fill="#FFFFFF" d="M-226.188,1765.224l1.178-0.824l0.366-1.461
				l0.368-1.462l-0.651-0.784l-0.65-0.784h-0.962h-0.96l-0.881,0.977c-0.484,0.538-1.046,1.644-1.249,2.458l-0.369,1.481
				l1.023,0.594C-227.639,1766.197-227.567,1766.191-226.188,1765.224z"/>
			<path id="path4145_1_" fill="#75B043" d="M-220.773,1767.305
				c0.153-0.538,0.69-2.89,1.194-5.229l0.915-4.251l3.147-0.325l3.145-0.325l0.723,0.599l0.721,0.597v1.002
				c0,0.551-0.153,1.4-0.339,1.885l-0.339,0.883h-1.27h-1.271l-0.308-1.175l-0.308-1.175l-0.733,0.246l-0.735,0.244l-0.175,1.07
				c-0.097,0.588-0.543,2.388-0.993,4l-0.818,2.93h-1.417h-1.418L-220.773,1767.305z"/>
			<path id="path4143_1_" fill="#75B043" d="M-210.929,1767.627c0-0.402,0.664-3.811,1.479-7.573
				l1.479-6.842h1.374h1.373l-0.326,1.814c-0.18,0.997-0.495,2.903-0.7,4.234l-0.374,2.422l1.335-0.189l1.335-0.188l1.022-2.093
				l1.022-2.094h1.07h1.07v1.423v1.423l-0.825,1.596c-0.454,0.878-1.144,1.713-1.535,1.857l-0.71,0.259l0.698,0.739l0.699,0.74
				v1.563v1.562l-1.256-0.006l-1.255-0.005l-0.959-2.279l-0.958-2.28l-0.678,0.227l-0.677,0.226l-0.644,1.919l-0.643,1.919
				l-1.208,0.179l-1.208,0.178V1767.627L-210.929,1767.627z"/>
			<path id="path4060_1_" fill="#75B043" d="M-199.667,1767.025l0.179-1.255l1.32-0.187
				l1.319-0.187l0.513,0.512l0.511,0.512l-0.357,0.931l-0.357,0.931h-1.654h-1.653L-199.667,1767.025z"/>
			<path id="path4058_1_" fill="#131B28" d="M-473.867,1761.329l-0.348-0.349l1.406-5.699
				c0.774-3.133,1.652-6.012,1.951-6.396l0.544-0.697h3.027h3.026l1.32-1.32c0.727-0.726,1.816-2.295,2.422-3.488l1.101-2.168
				l3.709-17.045c2.041-9.375,3.908-17.789,4.15-18.697l0.441-1.651l7.355-0.156l7.355-0.155v0.954c0,0.525-1.895,9.687-4.21,20.36
				l-4.209,19.405l-1.386,4.074l-1.385,4.074l-1.923,2.897l-1.923,2.896l-2.667,1.568l-2.667,1.568l-8.372,0.187l-8.372,0.187
				L-473.867,1761.329L-473.867,1761.329z M-292.134,1740.585c-8.353-1.645-9.516-2.1-12.467-4.876
				c-2.369-2.23-3.151-3.758-3.981-7.789l-0.669-3.247l0.629-4.846l0.63-4.846l1.377-5.234l1.378-5.235l1.667-3.495l1.668-3.494
				l2.576-2.866l2.576-2.866l2.353-1.378c1.294-0.758,3.839-1.926,5.656-2.596l3.303-1.217l8.093-0.042l8.093-0.041l3.019,1.051
				l3.019,1.052l2.395,2.394l2.394,2.395l0.941,3.233l0.939,3.233l-0.335,5.042l-0.335,5.042l-1.008,4.186l-1.01,4.186
				l-16.682,0.148l-16.683,0.148l-0.745,0.618l-0.744,0.618v1.301c0,0.715,0.299,1.959,0.665,2.764l0.667,1.463l1.705,0.935
				l1.706,0.934l13.534,0.183l13.534,0.184l-0.022,1.212c-0.012,0.667-0.488,3.441-1.057,6.166l-1.036,4.954l-0.756,0.479
				l-0.757,0.48l-12.557-0.057C-285.367,1740.83-291.521,1740.706-292.134,1740.585L-292.134,1740.585z M-271.763,1705.179v-2.27
				l-0.575-1.074l-0.575-1.073l-1.629-0.843l-1.63-0.843h-3.619h-3.62l-1.572,0.593c-2.684,1.014-6.313,5.15-6.313,7.193v0.586
				h9.767h9.767V1705.179z M-412.407,1739.991c-0.768-0.129-2.651-0.621-4.186-1.094l-2.791-0.86l-2.875-1.93l-2.875-1.93
				l-1.478-2.131c-0.812-1.173-1.998-3.482-2.635-5.132l-1.158-3.002l-0.274-5.023l-0.274-5.022l0.938-5.023l0.938-5.022
				l1.672-5.023l1.671-5.022l2.012-3.628l2.012-3.628l4.3-4.321l4.301-4.321l3.56-1.66c1.958-0.913,5.183-2.074,7.166-2.579
				l3.605-0.918l6.999,0.255l6.998,0.255l3.203,1.24l3.203,1.241l2.657,1.823l2.657,1.822l2.069,2.721l2.068,2.722l1.28,3.371
				l1.28,3.371l-0.03,5.861l-0.03,5.86l-1.533,5.022c-0.843,2.763-2.525,7.743-3.737,11.066c-1.212,3.324-2.204,6.4-2.204,6.837
				v0.794h3.255c1.791,0,3.392,0.136,3.558,0.301l0.303,0.303l-1.562,5.822c-0.859,3.201-1.722,6.079-1.917,6.394l-0.354,0.574
				l-20.199-0.075C-401.922,1740.258-411.639,1740.119-412.407,1739.991L-412.407,1739.991z M-387.901,1722.656
				c0.612-2.073,2.145-7.409,3.406-11.86l2.295-8.093l-0.174-4.788l-0.174-4.79l-1.609-2.108l-1.61-2.109l-2.297-1.044l-2.298-1.043
				l-4.464-0.006l-4.465-0.007l-2.791,1.303l-2.791,1.302l-2.156,2.391l-2.155,2.391l-1.649,3.522l-1.647,3.522l-1.074,5.197
				l-1.071,5.197l0.005,2.512c0.004,1.38,0.234,3.497,0.513,4.7l0.509,2.189l1.046,1.438l1.047,1.438l2.457,1.256l2.458,1.256h8.788
				h8.788L-387.901,1722.656L-387.901,1722.656z M-348.782,1739.991c-0.767-0.129-2.542-0.602-3.943-1.052l-2.548-0.816
				l-2.032-2.083l-2.032-2.082l-0.908-2.512l-0.908-2.511l-0.021-4.84l-0.019-4.84l3.23-15.531l3.229-15.531l0.534-0.697
				l0.533-0.698h6.316h6.318l0.303,0.491l0.304,0.491l-3.062,15.248l-3.06,15.246v2.897v2.897l0.977,1.206l0.977,1.205l2.232,0.518
				l2.233,0.518l4.256,0.014l4.257,0.013l0.577-0.698l0.578-0.696l3.962-18.418c2.179-10.129,4.206-18.982,4.501-19.672l0.541-1.256
				h6.43h6.431v1.299c0,0.714-2.408,12.58-5.352,26.368l-5.351,25.068l-0.649,0.413l-0.648,0.413l-13.395-0.067
				C-341.36,1740.254-348.014,1740.119-348.782,1739.991L-348.782,1739.991z M-255.351,1739.606l-0.295-0.769l5.396-25.322
				l5.395-25.322l0.606-0.744l0.606-0.745l17.333,0.202l17.334,0.202l2,0.894l1.999,0.894l1.201,1.527l1.202,1.527l0.572,2.029
				c0.314,1.116,0.726,2.969,0.917,4.121l0.345,2.093h-15.908h-15.91l-0.569,0.698l-0.569,0.698l-3.684,17.7
				c-2.027,9.735-3.686,18.068-3.686,18.518c0,0.449-0.395,1.211-0.878,1.693l-0.876,0.877h-6.117h-6.116L-255.351,1739.606
				L-255.351,1739.606z M-211.789,1739.782l-0.367-0.594l1.49-6.001l1.487-6.001l-3.311-11.526l-3.311-11.528l0.296-0.296
				c0.163-0.162,3.635-0.296,7.718-0.296h7.422l0.514,0.976c0.283,0.538,0.815,2.436,1.183,4.218l0.666,3.24l0.485-0.171
				c0.268-0.094,5.277-7.203,11.133-15.798c5.856-8.594,11.064-15.941,11.574-16.324l0.928-0.698h8.323h8.325l-0.291,0.759
				c-0.158,0.417-8.287,11.405-18.063,24.417l-17.773,23.659l-1.331,5.302c-0.733,2.916-1.556,5.741-1.829,6.279l-0.496,0.976
				h-7.204h-7.203L-211.789,1739.782z M-449.565,1697.278c0.202-1.313,0.796-4.146,1.322-6.295l0.955-3.906l7.395-0.156l7.395-0.156
				l-0.016,0.714c-0.008,0.393-0.578,3.225-1.267,6.295l-1.254,5.581l-7.448,0.157l-7.448,0.156L-449.565,1697.278z"/>
		</g>
	</g>
	<g>
	</g>
	<g>
	</g>
	<g>
	</g>
	<g>
	</g>
	<g>
	</g>
	<g>
	</g>
</g>
</svg>
