<?xml version="1.0" encoding="utf-8"?>
<!-- Generator: Adobe Illustrator 16.0.0, SVG Export Plug-In . SVG Version: 6.00 Build 0)  -->
<!DOCTYPE svg PUBLIC "-//W3C//DTD SVG 1.1//EN" "http://www.w3.org/Graphics/SVG/1.1/DTD/svg11.dtd">
<svg version="1.1" xmlns="http://www.w3.org/2000/svg" xmlns:xlink="http://www.w3.org/1999/xlink" x="0px" y="0px" width="1000px"
	 height="1000px" viewBox="0 0 1000 1000" enable-background="new 0 0 1000 1000" xml:space="preserve">
<g id="Layer_2">
	<linearGradient id="SVGID_1_" gradientUnits="userSpaceOnUse" x1="100.3301" y1="489.8086" x2="899.2783" y2="489.8086">
		<stop  offset="0" style="stop-color:#D6E038"/>
		<stop  offset="0.049" style="stop-color:#CADB39"/>
		<stop  offset="0.1658" style="stop-color:#B1D23B"/>
		<stop  offset="0.2852" style="stop-color:#9ECC3D"/>
		<stop  offset="0.4079" style="stop-color:#93C83E"/>
		<stop  offset="0.5385" style="stop-color:#8FC73E"/>
		<stop  offset="0.9994" style="stop-color:#3CB54A"/>
	</linearGradient>
	<path fill="url(#SVGID_1_)" d="M859.278,90.335H140.33c-22.092,0-40,17.908-40,40v718.947c0,22.092,17.908,40,40,40h718.948
		c22.091,0,40-17.908,40-40V130.335C899.278,108.244,881.369,90.335,859.278,90.335z M881.384,833.179
		c0,21.103-17.107,38.209-38.208,38.209H156.433c-21.102,0-38.208-17.106-38.208-38.209v-686.74
		c0-21.103,17.106-38.208,38.208-38.208h686.743c21.101,0,38.208,17.106,38.208,38.208V833.179z"/>
	<g>
		<path fill="#75B043" d="M363.085,598.055c1.071,2.062,2.495,3.734,4.27,5.012c1.773,1.281,3.856,2.229,6.25,2.848
			c2.392,0.617,4.868,0.928,7.426,0.928c1.733,0,3.589-0.143,5.569-0.434c1.98-0.287,3.837-0.846,5.57-1.67s3.176-1.959,4.332-3.404
			c1.155-1.443,1.733-3.279,1.733-5.508c0-2.393-0.764-4.332-2.29-5.818c-1.528-1.484-3.527-2.723-6.003-3.713
			c-2.475-0.99-5.281-1.855-8.416-2.598c-3.137-0.744-6.312-1.566-9.53-2.477c-3.301-0.824-6.52-1.834-9.654-3.031
			c-3.137-1.195-5.941-2.742-8.417-4.643c-2.475-1.896-4.477-4.27-6.002-7.117c-1.528-2.846-2.29-6.291-2.29-10.334
			c0-4.537,0.969-8.479,2.909-11.82c1.938-3.342,4.475-6.127,7.612-8.354c3.135-2.229,6.684-3.879,10.644-4.951
			c3.961-1.072,7.921-1.609,11.882-1.609c4.62,0,9.054,0.516,13.305,1.547c4.249,1.033,8.024,2.703,11.325,5.014
			c3.299,2.311,5.92,5.26,7.86,8.85c1.938,3.588,2.908,7.941,2.908,13.057h-18.813c-0.166-2.639-0.723-4.826-1.671-6.559
			c-0.949-1.734-2.208-3.096-3.775-4.086c-1.568-0.99-3.363-1.689-5.384-2.104c-2.023-0.412-4.229-0.619-6.622-0.619
			c-1.568,0-3.137,0.166-4.703,0.496c-1.568,0.33-2.992,0.908-4.27,1.732c-1.28,0.826-2.333,1.855-3.156,3.094
			c-0.826,1.238-1.238,2.807-1.238,4.703c0,1.732,0.329,3.137,0.99,4.209c0.66,1.072,1.959,2.062,3.899,2.971
			c1.938,0.908,4.62,1.814,8.045,2.723c3.423,0.908,7.9,2.062,13.429,3.465c1.649,0.332,3.939,0.928,6.869,1.795
			c2.928,0.867,5.836,2.25,8.726,4.146c2.887,1.898,5.384,4.436,7.488,7.611c2.104,3.178,3.156,7.24,3.156,12.191
			c0,4.045-0.785,7.799-2.352,11.264c-1.568,3.465-3.899,6.457-6.993,8.973c-3.094,2.518-6.931,4.479-11.511,5.879
			c-4.58,1.402-9.882,2.105-15.904,2.105c-4.87,0-9.592-0.6-14.172-1.795s-8.623-3.074-12.129-5.633
			c-3.508-2.557-6.293-5.816-8.354-9.777c-2.063-3.961-3.054-8.664-2.97-14.109h18.813
			C361.477,593.475,362.012,595.992,363.085,598.055z"/>
		<path fill="#75B043" d="M494.652,531.465v16.338H447.99v18.938h42.825v15.1H447.99v21.66h47.652v16.338h-67.084v-88.373H494.652z"
			/>
		<path fill="#75B043" d="M574.854,531.465v16.338h-46.662v18.938h42.826v15.1h-42.826v21.66h47.652v16.338H508.76v-88.373H574.854z
			"/>
		<path fill="#75B043" d="M627.084,531.465c5.693,0,10.994,0.91,15.904,2.723c4.91,1.816,9.16,4.539,12.75,8.17
			c3.588,3.631,6.393,8.168,8.416,13.615c2.021,5.445,3.031,11.84,3.031,19.184c0,6.436-0.824,12.377-2.475,17.822
			c-1.652,5.447-4.146,10.15-7.488,14.111c-3.342,3.959-7.51,7.076-12.5,9.344c-4.994,2.271-10.873,3.404-17.639,3.404h-38.121
			v-88.373H627.084z M625.723,603.5c2.805,0,5.527-0.453,8.17-1.361c2.639-0.908,4.99-2.414,7.055-4.518
			c2.061-2.105,3.713-4.848,4.951-8.23c1.236-3.383,1.855-7.508,1.855-12.377c0-4.457-0.434-8.479-1.299-12.068
			c-0.867-3.59-2.291-6.662-4.27-9.221c-1.98-2.557-4.602-4.518-7.859-5.879c-3.262-1.361-7.283-2.043-12.068-2.043h-13.863V603.5
			H625.723z"/>
	</g>
</g>
<g id="Layer_1">
	<g id="layer1" transform="translate(0,-850.3622)">
		<g id="g5991" transform="translate(609.88006,-675.5293)">
			<g id="g4224" transform="translate(-10.101525,233.99825)">

					<path id="path4228" fill="#75B043" d="
					M-365.178,1739.573c-14.528-1.905-31.195-11.884-40.566-24.289c-8.956-11.854-13.095-23.479-13.119-36.85
					c-0.021-11.875,3.463-20.681,12.297-31.077l2.34-2.753l-1.954,5.507c-1.489,4.2-1.956,7.686-1.965,14.688
					c-0.016,11.714,2.887,21.202,9.522,31.123c11.917,17.816,30.681,28.652,51.343,29.648c15.806,0.761,27.475-2.975,37.348-11.958
					l5.224-4.754l-2.146,3.844C-318.314,1733.226-339.417,1742.949-365.178,1739.573L-365.178,1739.573z M-350.049,1702.915
					c-5.68-1.448-11.303-4.268-17.179-8.614c-6.544-4.841-10.271-9.521-14.359-18.028c-2.676-5.569-2.867-6.641-2.867-16.063
					c0-9.695,0.121-10.318,3.025-15.605c1.663-3.029,4.036-6.747,5.272-8.261l2.248-2.754l-1.923,5.049
					c-1.567,4.112-1.855,6.521-1.552,12.998c0.326,6.954,0.812,8.841,3.881,15.05c10.898,22.051,37.692,32.944,57.843,23.514
					c3.209-1.502,7.508-4.403,9.551-6.446c4.217-4.218,4.033-2.8-0.543,4.197c-3.627,5.544-10.167,10.667-17.018,13.329
					C-329.052,1703.371-344.502,1704.329-350.049,1702.915L-350.049,1702.915z M-339.017,1669.325
					c-6.262-2.901-11.353-7.711-14.508-13.706c-3.237-6.15-3.412-15.559-0.395-21.279c2.607-4.94,4.049-5.894,2.911-1.922
					c-2.205,7.69,0.781,16.327,8.217,23.763c6.164,6.164,12.964,9.077,21.19,9.077c6.41,0,9.632-1.075,13.247-4.419
					c2.891-2.673,2.508-1.487-1.087,3.37C-314.902,1671.583-328.914,1674.008-339.017,1669.325L-339.017,1669.325z"/>
			</g>
			<path id="path4183" fill="#75B043" d="M-26.317,2013.766c0.011-0.631,0.837-4.845,1.835-9.362
				c0.999-4.519,1.817-8.752,1.817-9.409v-1.194h-1.291h-1.291l0.479-1.836l0.479-1.835h1.26h1.256l1.312-3.14l1.311-3.137
				l1.968-1.054l1.968-1.053l2.7,0.593l2.7,0.592l-0.015,1.075c-0.007,0.59-0.317,1.549-0.688,2.129l-0.674,1.056l-2.223,0.321
				l-2.224,0.321l-0.378,1.147l-0.379,1.148h2.471h2.469l-0.556,1.453c-0.307,0.798-0.558,1.625-0.558,1.835
				c0,0.211-1.006,0.383-2.234,0.383h-2.232l-0.498,1.606c-0.271,0.885-1.101,4.507-1.841,8.054
				c-0.739,3.547-1.771,7.573-2.295,8.95l-0.952,2.502h-1.858h-1.858L-26.317,2013.766L-26.317,2013.766z"/>
			<path id="path4181" fill="#75B043" d="M-140.069,1999.585c0.96-4.392,1.745-8.258,1.745-8.592
				v-0.605l5.241-0.541l5.239-0.542l0.957,0.758l0.956,0.758l1.836-0.74c1.009-0.406,2.755-0.769,3.879-0.804l2.044-0.065
				l1.473,2.249l1.474,2.248l-1.057,5.325c-0.58,2.93-1.262,6.049-1.513,6.932l-0.458,1.606h-2.076h-2.077l0.819-6.106l0.817-6.107
				l-1.204-0.762c-0.663-0.42-1.618-0.632-2.123-0.473l-0.918,0.291l-0.276,1.761c-0.152,0.967-0.697,3.928-1.212,6.579
				l-0.936,4.819h-2.248h-2.248l0.427-2.065c0.234-1.135,0.673-3.976,0.975-6.312l0.548-4.246l-1.572-0.605l-1.572-0.601
				l-0.689,1.115c-0.379,0.613-1.182,3.725-1.784,6.914l-1.095,5.8h-2.56h-2.558L-140.069,1999.585L-140.069,1999.585z"/>
			<path id="path4179" fill="#75B043" d="M-112.439,2006.47l-1.101-1.102l0.003-4.177l0.004-4.177
				l1.789-2.934l1.788-2.932l3.632-1.088l3.633-1.089l2.314,0.581c1.272,0.319,2.962,1.229,3.755,2.021l1.439,1.44v2.718v2.718
				l-1.279,3.063l-1.279,3.062l-2.138,1.498l-2.137,1.497h-4.659h-4.662L-112.439,2006.47L-112.439,2006.47z"/>
			<path id="path4177" fill="#FFFFFF" d="M-102.682,2002.292l1.882-1.606l0.162-1.836
				c0.088-1.009,0.112-2.324,0.056-2.92l-0.106-1.086l-1.802-0.572l-1.8-0.571l-1.797,0.961l-1.796,0.96l-0.643,2.924l-0.642,2.924
				l1.661,1.215C-105.361,2004.254-104.94,2004.219-102.682,2002.292L-102.682,2002.292z"/>
			<path id="path4175" fill="#75B043" d="M-93.314,2005.087c0.019-1.411,0.947-6.902,2.066-12.203
				l2.033-9.639l2.196-0.31l2.197-0.31l-0.5,3.722l-0.499,3.722l3.944-0.54l3.945-0.541l1.502,2.292l1.501,2.29l-0.615,3.839
				l-0.613,3.837l-1.972,2.933l-1.974,2.933l-6.622,0.27l-6.622,0.27L-93.314,2005.087L-93.314,2005.087z"/>
			<path id="path4173" fill="#FFFFFF" d="M-81.39,2000.626c0.492-1.295,0.896-3.146,0.896-4.113
				v-1.758l-2.363-0.592l-2.361-0.593l-0.804,0.804c-0.442,0.443-1.084,2.562-1.426,4.707l-0.624,3.9h2.893h2.894L-81.39,2000.626z"
				/>
			<path id="path4171" fill="#75B043" d="M-71.964,2000.95l0.853-6.62l-1.019-0.342l-1.021-0.339
				v-1.759v-1.76h4.191h4.193l-0.457,1.606c-0.253,0.884-0.929,4.085-1.502,7.114c-0.576,3.03-1.252,6.231-1.504,7.115l-0.456,1.606
				h-2.067h-2.067L-71.964,2000.95z"/>
			<path id="path4196" fill="#75B043" d="
				M-62.288,1986.721l0.976,0.602l1.09,0.689l-1.348,6.338c-0.745,3.489-1.547,7.889-1.807,9.782l-0.489,3.442h2.152h2.151
				l1.549-7.114c0.85-3.913,2.076-9.489,2.725-12.391l1.177-5.279h-4.017h-4.016l-0.028,1.148
				C-62.203,1984.937-62.351,1985.696-62.288,1986.721L-62.288,1986.721z"/>
			<path id="path4194" fill="#75B043" d="M-63.153,1985.43
				l0.033-1.951l-0.947-1.607h-1.664h-1.691l-1.119,1.348l-1.148,1.377l0.574,1.52l0.574,1.492l3.068-0.487l1.665-0.295
				L-63.153,1985.43z"/>
			<path id="path4167" fill="#75B043" d="M-53.186,2006.579l-1.607-0.936v-3.656v-3.655
				l1.305-3.121l1.305-3.123l2.781-1.438l2.78-1.438h2.595h2.596l2.04,1.43l2.041,1.428v4.079v4.079h-5.968h-5.967v1.377v1.377h5.05
				h5.048v1.195c0,0.656-0.497,1.689-1.103,2.294l-1.101,1.101l-5.096-0.026l-5.093-0.029L-53.186,2006.579L-53.186,2006.579z"/>
			<path id="path4165" fill="#FFFFFF" d="M-42.563,1995.085l-0.493-1.284h-1.203
				c-0.662,0-1.858,0.25-2.656,0.558l-1.451,0.558v1.093v1.095l3.147-0.367l3.148-0.367L-42.563,1995.085z"/>
			<path id="path4163" fill="#75B043" d="M-11.36,1999.011l1.806-8.651l5.109-0.528l5.11-0.527
				l1.187,0.984l1.185,0.983v3.101v3.1H0.312h-2.725l0.481-1.258l0.483-1.258l-1.561-0.599c-2.065-0.792-2.031-0.847-3.852,6.433
				l-1.577,6.321l-2.365,0.275l-2.364,0.275L-11.36,1999.011z"/>
			<path id="path4161" fill="#75B043" d="M5.059,2006.473l-1.104-1.105v-3.517v-3.518l1.3-3.112
				l1.3-3.111l2.398-1.572l2.399-1.571l5.205,0.612c2.861,0.335,5.369,0.776,5.569,0.979c0.203,0.201-0.419,4.009-1.381,8.46
				l-1.747,8.095l-6.417,0.233l-6.416,0.233L5.059,2006.473z"/>
			<path id="path4159" fill="#FFFFFF" d="M15.736,1999.085l0.987-3.896l-0.809-0.81l-0.811-0.81
				l-2.291,0.575l-2.292,0.576l-1.054,3.195l-1.055,3.195l0.58,0.936l0.577,0.935h2.589h2.588L15.736,1999.085z"/>
			<path id="path4157" fill="#75B043" d="M24.448,1998.965l1.797-8.605l5.146-0.531l5.146-0.531
				l0.735,0.735l0.734,0.737l3.588-0.958l3.587-0.958l1.97,1.783l1.97,1.783l-0.552,4.039c-0.306,2.221-0.983,5.629-1.506,7.575
				l-0.955,3.536h-1.918h-1.92l0.622-6.31l0.622-6.31l-1.577-0.606l-1.577-0.605l-0.658,1.067c-0.362,0.586-0.927,3.083-1.254,5.549
				c-0.328,2.464-0.832,5.098-1.118,5.848l-0.526,1.366h-2.03h-2.034l0.688-4.819c0.378-2.65,0.718-5.498,0.753-6.327l0.067-1.508
				l-1.532-0.588l-1.533-0.588l-0.597,0.966c-0.328,0.53-1.129,3.643-1.78,6.916l-1.182,5.949h-2.485h-2.484L24.448,1998.965z"/>
			<path id="path4155" fill="#75B043" d="M51.87,2006.47l-1.101-1.102l0.002-3.718l0.001-3.718
				l1.605-3.2l1.604-3.199l2.295-1.147l2.294-1.147l2.779-0.013l2.778-0.014l2.09,1.463l2.088,1.464l-0.277,3.814l-0.278,3.815
				l-5.754,0.458l-5.753,0.459l0.006,0.917l0.006,0.918l5.058,0.275c5.462,0.296,5.528,0.346,4.108,2.997l-0.948,1.776h-5.752
				h-5.749L51.87,2006.47L51.87,2006.47z"/>
			<path id="path4153" fill="#FFFFFF" d="M62.702,1995.014v-1.334l-2.518,0.291l-2.515,0.291
				l-0.275,1.453l-0.274,1.454l2.79-0.41l2.792-0.409V1995.014z"/>
			<path id="path4151" fill="#75B043" d="M71.157,1999.134l0.266-8.546l2.608-0.298l2.61-0.299
				l-0.315,5.491l-0.314,5.492l0.524-0.326c0.286-0.179,1.301-2.619,2.255-5.421l1.732-5.098h3.481h3.481l0.051,6.196l0.051,6.196
				l2.348-6.196l2.348-6.196h2.191h2.191v0.969c0,0.533-1.516,4.457-3.368,8.721l-3.366,7.751h-3.517h-3.519l-0.064-5.737
				l-0.064-5.737l-2.125,5.507l-2.122,5.508l-3.813,0.284l-3.812,0.284L71.157,1999.134L71.157,1999.134z"/>
			<path id="path4149" fill="#75B043" d="M98.107,2006.128l-1.441-1.442v-3.116v-3.116l1.53-3.212
				l1.533-3.214l3.179-1.509l3.179-1.508l3.319,0.539l3.316,0.539l1.15,1.571l1.15,1.576v3.096v3.098l-1.031,2.006
				c-0.569,1.102-1.88,2.934-2.914,4.069l-1.883,2.065h-4.822h-4.822L98.107,2006.128z"/>
			<path id="path4147" fill="#FFFFFF" d="M107.37,2002.543l1.937-1.355l0.603-2.404l0.604-2.405
				l-1.071-1.289l-1.069-1.289h-1.582h-1.579l-1.449,1.606c-0.796,0.885-1.72,2.704-2.054,4.043l-0.607,2.436l1.683,0.978
				C104.982,2004.142,105.101,2004.133,107.37,2002.543z"/>
			<path id="path4145" fill="#75B043" d="M116.275,2005.964c0.251-0.884,1.135-4.752,1.963-8.599
				l1.505-6.992l5.176-0.534l5.173-0.534l1.188,0.984l1.185,0.983v1.648c0,0.907-0.251,2.303-0.558,3.101l-0.558,1.452h-2.089h-2.09
				l-0.506-1.932l-0.506-1.933l-1.206,0.403l-1.208,0.402l-0.288,1.759c-0.159,0.968-0.893,3.928-1.633,6.579l-1.345,4.819h-2.33
				h-2.332L116.275,2005.964z"/>
			<path id="path4143" fill="#75B043" d="M132.465,2006.495c0-0.661,1.093-6.267,2.433-12.456
				l2.432-11.252h2.261h2.258l-0.535,2.983c-0.296,1.641-0.814,4.775-1.151,6.964l-0.614,3.983l2.196-0.311l2.196-0.31l1.682-3.442
				l1.681-3.443h1.761h1.761v2.34v2.341l-1.357,2.625c-0.747,1.445-1.882,2.818-2.524,3.054l-1.167,0.427l1.147,1.216l1.148,1.216
				v2.571v2.569l-2.065-0.009l-2.065-0.009l-1.577-3.749l-1.575-3.75l-1.116,0.373l-1.114,0.371l-1.059,3.157l-1.058,3.157
				l-1.987,0.294l-1.988,0.292V2006.495L132.465,2006.495z"/>
			<path id="path4060" fill="#75B043" d="M150.988,2005.505l0.294-2.065l2.172-0.307l2.17-0.307
				l0.844,0.842l0.841,0.842l-0.587,1.53l-0.588,1.53h-2.72h-2.719L150.988,2005.505z"/>
			<path id="path4058" fill="#131B28" d="M-299.992,1996.138l-0.572-0.574l2.313-9.373
				c1.273-5.154,2.717-9.888,3.209-10.519l0.895-1.147h4.978h4.978l2.171-2.171c1.194-1.194,2.987-3.776,3.984-5.737l1.811-3.566
				l6.1-28.034c3.356-15.419,6.428-29.257,6.827-30.75l0.725-2.716l12.097-0.257l12.098-0.256v1.57
				c0,0.862-3.116,15.932-6.924,33.485l-6.924,31.917l-2.278,6.701l-2.278,6.7l-3.164,4.765l-3.163,4.764l-4.386,2.579l-4.387,2.579
				l-13.769,0.307l-13.769,0.307L-299.992,1996.138L-299.992,1996.138z M-1.093,1962.018c-13.737-2.706-15.65-3.453-20.504-8.02
				c-3.897-3.668-5.183-6.181-6.549-12.81l-1.101-5.34l1.034-7.971l1.036-7.969l2.266-8.61l2.266-8.61l2.742-5.747l2.744-5.747
				l4.237-4.714l4.236-4.714l3.869-2.266c2.129-1.247,6.314-3.168,9.303-4.269l5.434-2.002l13.311-0.067l13.311-0.068l4.966,1.729
				l4.964,1.729l3.938,3.938l3.938,3.938l1.548,5.317l1.545,5.317l-0.551,8.292l-0.552,8.292l-1.658,6.885l-1.661,6.884
				l-27.437,0.244l-27.439,0.243l-1.225,1.016l-1.224,1.017v2.139c0,1.176,0.493,3.222,1.095,4.546l1.097,2.406l2.805,1.539
				l2.806,1.536l22.26,0.301l22.26,0.302l-0.036,1.994c-0.02,1.097-0.803,5.66-1.739,10.142l-1.703,8.147l-1.243,0.789l-1.245,0.789
				l-20.653-0.093C10.037,1962.422-0.084,1962.217-1.093,1962.018L-1.093,1962.018z M32.411,1903.786v-3.733l-0.945-1.767
				l-0.946-1.766l-2.68-1.386l-2.682-1.386h-5.951h-5.954l-2.584,0.976c-4.414,1.667-10.385,8.47-10.385,11.83v0.963h16.063h16.063
				V1903.786z M-198.907,1961.041c-1.262-0.212-4.36-1.021-6.884-1.8l-4.589-1.415l-4.729-3.174l-4.729-3.174l-2.43-3.504
				c-1.335-1.929-3.286-5.727-4.334-8.442l-1.905-4.937l-0.451-8.262l-0.452-8.261l1.542-8.262l1.542-8.26l2.75-8.262l2.748-8.261
				l3.31-5.967l3.309-5.966l7.074-7.106l7.073-7.106l5.855-2.73c3.22-1.501,8.524-3.41,11.786-4.241l5.93-1.51l11.511,0.419
				l11.51,0.419l5.268,2.04l5.269,2.041l4.37,2.998l4.37,2.998l3.403,4.476l3.402,4.476l2.105,5.545l2.105,5.544l-0.05,9.638
				l-0.049,9.639l-2.521,8.261c-1.387,4.544-4.152,12.734-6.146,18.201c-1.994,5.466-3.625,10.526-3.625,11.245v1.305h5.355
				c2.945,0,5.578,0.223,5.851,0.496l0.498,0.498l-2.569,9.574c-1.413,5.265-2.831,9.999-3.151,10.517l-0.584,0.944l-33.22-0.124
				C-181.662,1961.48-197.645,1961.251-198.907,1961.041L-198.907,1961.041z M-158.602,1932.531
				c1.006-3.409,3.528-12.186,5.603-19.506l3.774-13.311l-0.286-7.875l-0.287-7.877l-2.647-3.468l-2.647-3.469l-3.778-1.716
				l-3.779-1.716l-7.343-0.011l-7.343-0.011l-4.59,2.142l-4.589,2.142l-3.545,3.932l-3.545,3.932l-2.712,5.793l-2.71,5.793
				l-1.765,8.548l-1.763,8.548l0.01,4.131c0.005,2.271,0.385,5.751,0.844,7.73l0.836,3.601l1.721,2.366l1.721,2.365l4.042,2.065
				l4.042,2.065h14.454h14.453L-158.602,1932.531L-158.602,1932.531z M-94.263,1961.041c-1.263-0.212-4.181-0.989-6.486-1.73
				l-4.191-1.343l-3.342-3.425l-3.343-3.425l-1.493-4.131l-1.493-4.131l-0.033-7.96l-0.032-7.961l5.312-25.543l5.311-25.543
				l0.877-1.147l0.877-1.148h10.389h10.391l0.499,0.808l0.499,0.807l-5.035,25.077l-5.033,25.076v4.765v4.765l1.606,1.982
				l1.606,1.982l3.671,0.851l3.672,0.851l7.001,0.022l7.001,0.021l0.949-1.148l0.95-1.146l6.516-30.292
				c3.585-16.66,6.918-31.221,7.404-32.356l0.89-2.065h10.576h10.576v2.137c0,1.174-3.961,20.69-8.802,43.367l-8.801,41.231
				l-1.066,0.679l-1.067,0.679l-22.029-0.11C-82.056,1961.474-93,1961.251-94.263,1961.041L-94.263,1961.041z M59.405,1960.409
				l-0.486-1.265l8.875-41.648l8.873-41.648l0.996-1.225l0.997-1.224l28.508,0.331l28.51,0.332l3.288,1.47l3.287,1.47l1.977,2.512
				l1.976,2.512l0.941,3.337c0.517,1.834,1.193,4.884,1.508,6.778l0.567,3.441h-26.165H96.889l-0.936,1.147l-0.937,1.148
				l-6.059,29.111c-3.335,16.012-6.062,29.715-6.062,30.456c0,0.738-0.648,1.993-1.443,2.785l-1.441,1.442H69.951h-10.06
				L59.405,1960.409L59.405,1960.409z M131.052,1960.698l-0.604-0.977l2.449-9.87l2.446-9.87l-5.445-18.958l-5.445-18.959
				l0.487-0.487c0.268-0.267,5.979-0.487,12.693-0.487h12.207l0.846,1.606c0.467,0.884,1.341,4.006,1.945,6.937l1.096,5.329
				l0.799-0.28c0.44-0.155,8.68-11.846,18.311-25.983c9.631-14.135,18.197-26.218,19.036-26.849l1.526-1.148h13.689h13.692
				l-0.479,1.247c-0.262,0.686-13.631,18.758-29.709,40.16l-29.232,38.913l-2.189,8.72c-1.204,4.795-2.559,9.443-3.008,10.327
				l-0.815,1.606h-11.848h-11.847L131.052,1960.698z M-260.022,1890.791c0.332-2.16,1.31-6.819,2.174-10.354l1.571-6.425
				l12.163-0.256l12.163-0.256l-0.026,1.174c-0.013,0.646-0.952,5.305-2.084,10.353l-2.062,9.179l-12.25,0.258l-12.25,0.256
				L-260.022,1890.791z"/>
		</g>
	</g>
	<g>
	</g>
	<g>
	</g>
	<g>
	</g>
	<g>
	</g>
	<g>
	</g>
	<g>
	</g>
</g>
</svg>
